<svg id="Layer_1" data-name="Layer 1" xmlns="http://www.w3.org/2000/svg" viewBox="0 0 234.27 105.42"><defs><style>.cls-1{fill:#007bb5;}.cls-2{fill:#6e6f71;}</style></defs><path class="cls-1" d="M33.82,10.05H45V48.17s4-4.87,6.75-8.15L76,10.37H89.18l-24.86,31L89.8,83.22H76.68L57.28,49.09,45,63.86V83.22H33.82Z"/><path class="cls-1" d="M82.56,58.41a24.6,24.6,0,0,1,24.62-24.9c12.74,0,23,11.1,23,24.52a35.37,35.37,0,0,1-.29,4.15H93.66c1.55,7.62,7.73,11.58,14.87,11.58a24.4,24.4,0,0,0,13.7-4.15l4.25,7.92a32.62,32.62,0,0,1-18.15,5.69C94.73,83.22,82.56,74.15,82.56,58.41Zm37.16-4.15A13.1,13.1,0,0,0,106.6,42.88c-6.18,0-11.59,4.53-13,11.38Z"/><path class="cls-1" d="M134.39,86.4c5.7,0,8.11-2,10.52-6.85l1-1.93L125.23,34.48h11L147.71,60c1.45,3.18,3.09,7.53,3.09,7.53s2.13-5.6,3.09-8l10.33-25H175l-2.64,6L153.22,84.38c-4.93,11.1-13.23,12.06-18.83,12.06Z"/><path class="cls-2" d="M170.33,59.26h3.76V77h12.59v3.24H170.33Z"/><path class="cls-2" d="M188.49,62.5H181.1V59.26h18.55V62.5h-7.4V80.27h-3.76Z"/><path class="cls-2" d="M201.31,59.26h16.31V62.5H205.07v5.12H216.9v3.21H205.07V77h13v3.24H201.31Z"/><path class="cls-2" d="M100.78,23.08c0-2.85,1.85-5.15,4.57-5.15a4.24,4.24,0,0,1,3.29,1.46V18.13h2.22V28h-2.22V26.77a4.22,4.22,0,0,1-3.29,1.44C102.63,28.21,100.78,25.91,100.78,23.08Zm7.86,0a2.79,2.79,0,0,0-2.73-3,2.85,2.85,0,0,0-2.88,3,2.83,2.83,0,0,0,2.88,3A2.78,2.78,0,0,0,108.64,23.08Z"/><path class="cls-2" d="M112.7,13.57l2.21-.66V28H112.7Z"/><path class="cls-2" d="M117.37,24.84V20h-1.46V18.13h1.46V12.19l2.21-.66v6.6h3V20h-3V24.9c0,1.05.5,1.39,1.06,1.39a2.76,2.76,0,0,0,1.44-.48l.66,1.66a4.27,4.27,0,0,1-2.38.74C118.35,28.21,117.37,27.11,117.37,24.84Z"/><path class="cls-2" d="M123.84,10.26l2.21-.65v9.94a3.62,3.62,0,0,1,3.18-1.62c2.59,0,3.55,1.7,3.55,4.41V28h-2.22V22.62c0-1.59-.42-2.53-2-2.55a2.5,2.5,0,0,0-2.5,2.53V28h-2.21Z"/><path class="cls-2" d="M134.14,23.08a5.09,5.09,0,0,1,5.09-5.15A4.93,4.93,0,0,1,144,23a7.36,7.36,0,0,1-.06.86h-7.49a3,3,0,0,0,3.08,2.39,5.09,5.09,0,0,0,2.83-.85l.88,1.63a6.73,6.73,0,0,1-3.75,1.18A5,5,0,0,1,134.14,23.08Zm7.68-.86a2.7,2.7,0,0,0-2.71-2.35,2.81,2.81,0,0,0-2.7,2.35Z"/><path class="cls-2" d="M145.14,23.08c0-2.85,1.85-5.15,4.57-5.15A4.24,4.24,0,0,1,153,19.39V18.13h2.22V28H153V26.77a4.22,4.22,0,0,1-3.29,1.44C147,28.21,145.14,25.91,145.14,23.08Zm7.86,0a2.79,2.79,0,0,0-2.73-3,2.85,2.85,0,0,0-2.88,3,2.83,2.83,0,0,0,2.88,3A2.78,2.78,0,0,0,153,23.08Z"/><path class="cls-1" d="M147.24,13.64a.63.63,0,0,1-.44-.19,10.94,10.94,0,0,0-15.48,0,.63.63,0,0,1-.9-.89,12.18,12.18,0,0,1,17.27,0,.62.62,0,0,1,0,.89A.64.64,0,0,1,147.24,13.64Z"/><path class="cls-1" d="M145.46,15.42a.63.63,0,0,1-.45-.18,8.41,8.41,0,0,0-11.91,0,.62.62,0,0,1-.89,0,.63.63,0,0,1,0-.9,9.67,9.67,0,0,1,13.69,0,.63.63,0,0,1,0,.9A.62.62,0,0,1,145.46,15.42Z"/><path class="cls-1" d="M143.67,17.21a.66.66,0,0,1-.45-.18,5.88,5.88,0,0,0-8.33,0,.63.63,0,0,1-.89-.9,7.15,7.15,0,0,1,10.12,0,.65.65,0,0,1,0,.9A.66.66,0,0,1,143.67,17.21Z"/><polygon class="cls-1" points="33.82 33.31 25.84 33.31 21.71 23.27 33.82 23.27 33.82 33.31"/><polygon class="cls-1" points="33.82 20.08 20.33 20.08 16.2 10.05 33.82 10.05 33.82 20.08"/></svg>